<svg xmlns="http://www.w3.org/2000/svg" xmlns:xlink="http://www.w3.org/1999/xlink" width="500" zoomAndPan="magnify" viewBox="0 0 375 374.999991" height="500" preserveAspectRatio="xMidYMid meet" version="1.0"><defs><g/><clipPath id="3e3d30d02a"><path d="M 145 148 L 152.128906 148 L 152.128906 156 L 145 156 Z M 145 148 " clip-rule="nonzero"/></clipPath><clipPath id="188fa1ae6f"><path d="M 140 142.492188 L 145 142.492188 L 145 146 L 140 146 Z M 140 142.492188 " clip-rule="nonzero"/></clipPath><clipPath id="957429619b"><path d="M 85.378906 219 L 92 219 L 92 227 L 85.378906 227 Z M 85.378906 219 " clip-rule="nonzero"/></clipPath><clipPath id="d6558185ac"><path d="M 93 229 L 97 229 L 97 232.492188 L 93 232.492188 Z M 93 229 " clip-rule="nonzero"/></clipPath></defs><rect x="-37.5" width="450" fill="#ffffff" y="-37.499999" height="449.999989" fill-opacity="1"/><path fill="#143151" d="M 132.605469 160.191406 L 129.984375 160.191406 L 129.984375 157.832031 C 129.054688 157.351562 127.996094 157.078125 126.878906 157.078125 C 123.128906 157.078125 120.066406 160.132812 120.066406 163.855469 L 120.066406 211.128906 C 120.066406 214.851562 123.128906 217.90625 126.878906 217.90625 C 130.464844 217.90625 133.425781 215.113281 133.675781 211.605469 C 134.480469 211.878906 135.34375 212.035156 136.246094 212.035156 C 140.578125 212.035156 144.089844 208.542969 144.089844 204.230469 C 144.089844 203.441406 143.976562 202.691406 143.761719 201.96875 C 147.96875 200.4375 150.96875 196.40625 150.96875 191.691406 C 150.96875 188.96875 149.972656 186.480469 148.328125 184.5625 C 149.15625 183.28125 149.628906 181.746094 149.628906 180.105469 C 149.628906 176.355469 147.132812 173.191406 143.710938 172.144531 L 137.253906 172.144531 L 137.253906 163.910156 L 139.855469 163.910156 C 137.136719 160.039062 133.734375 160.234375 132.605469 160.191406 Z M 132.140625 175.777344 L 127.644531 175.777344 L 127.644531 180.257812 L 132.140625 180.257812 Z M 140.898438 175 L 136.398438 175 L 136.398438 179.476562 L 140.898438 179.476562 Z M 133.941406 170.429688 L 131.074219 170.429688 L 131.074219 173.269531 L 133.941406 173.269531 Z M 129.621094 166.609375 L 126.757812 166.609375 L 126.757812 169.453125 L 129.621094 169.453125 Z M 135.453125 161.648438 L 132.597656 161.648438 L 132.597656 164.496094 L 135.453125 164.496094 Z M 135.453125 161.648438 " fill-opacity="1" fill-rule="evenodd"/><g clip-path="url(#3e3d30d02a)"><path fill="#143151" d="M 152.515625 148.546875 L 145.585938 148.546875 L 145.585938 155.441406 L 152.515625 155.441406 Z M 152.515625 148.546875 " fill-opacity="1" fill-rule="evenodd"/></g><path fill="#143151" d="M 142.851562 154.054688 L 138.472656 154.054688 L 138.472656 158.414062 L 142.851562 158.414062 Z M 142.851562 154.054688 " fill-opacity="1" fill-rule="evenodd"/><path fill="#143151" d="M 151.125 164.703125 L 146.738281 164.703125 L 146.738281 169.066406 L 151.125 169.066406 Z M 151.125 164.703125 " fill-opacity="1" fill-rule="evenodd"/><g clip-path="url(#188fa1ae6f)"><path fill="#143151" d="M 144.070312 142.511719 L 140.964844 142.511719 L 140.964844 145.601562 L 144.070312 145.601562 Z M 144.070312 142.511719 " fill-opacity="1" fill-rule="evenodd"/></g><path fill="#143151" d="M 137.714844 146.492188 L 134.121094 146.492188 L 134.121094 150.058594 L 137.714844 150.058594 Z M 137.714844 146.492188 " fill-opacity="1" fill-rule="evenodd"/><path fill="#143151" d="M 148.578125 158.394531 L 145.472656 158.394531 L 145.472656 161.476562 L 148.578125 161.476562 Z M 148.578125 158.394531 " fill-opacity="1" fill-rule="evenodd"/><path fill="#143151" d="M 134.042969 155.066406 L 131.6875 155.066406 L 131.6875 157.410156 L 134.042969 157.410156 Z M 134.042969 155.066406 " fill-opacity="1" fill-rule="evenodd"/><path fill="#143151" d="M 144.339844 165.226562 L 138.4375 165.226562 L 138.4375 171.097656 L 144.339844 171.097656 Z M 144.339844 165.226562 " fill-opacity="1" fill-rule="evenodd"/><path fill="#d1212e" d="M 104.9375 214.789062 L 107.5625 214.789062 L 107.5625 217.152344 C 108.492188 217.632812 109.550781 217.90625 110.667969 217.90625 C 114.40625 217.90625 117.476562 214.851562 117.476562 211.128906 L 117.476562 163.855469 C 117.476562 160.132812 114.40625 157.078125 110.667969 157.078125 C 107.082031 157.078125 104.121094 159.875 103.871094 163.378906 C 103.0625 163.105469 102.191406 162.949219 101.300781 162.949219 C 96.964844 162.949219 93.445312 166.449219 93.445312 170.753906 C 93.445312 171.542969 93.566406 172.292969 93.785156 173.015625 C 89.578125 174.546875 86.566406 178.578125 86.566406 183.292969 C 86.566406 186.015625 87.566406 188.503906 89.214844 190.421875 C 88.390625 191.703125 87.917969 193.238281 87.917969 194.878906 C 87.917969 198.628906 90.402344 201.792969 93.832031 202.839844 L 100.292969 202.839844 L 100.292969 211.070312 L 97.6875 211.070312 C 100.40625 214.945312 103.800781 214.746094 104.9375 214.789062 Z M 105.402344 199.207031 L 109.902344 199.207031 L 109.902344 194.722656 L 105.402344 194.722656 Z M 96.636719 199.984375 L 101.144531 199.984375 L 101.144531 195.507812 L 96.640625 195.507812 L 96.640625 199.984375 Z M 103.605469 204.554688 L 106.460938 204.554688 L 106.460938 201.714844 L 103.605469 201.714844 Z M 107.921875 208.375 L 110.789062 208.375 L 110.789062 205.53125 L 107.921875 205.53125 Z M 102.082031 213.335938 L 104.945312 213.335938 L 104.945312 210.488281 L 102.082031 210.488281 Z M 102.082031 213.335938 " fill-opacity="1" fill-rule="evenodd"/><g clip-path="url(#957429619b)"><path fill="#d1212e" d="M 91.960938 219.539062 L 85.019531 219.539062 L 85.019531 226.4375 L 91.960938 226.4375 Z M 91.960938 219.539062 " fill-opacity="1" fill-rule="evenodd"/></g><path fill="#d1212e" d="M 99.074219 216.570312 L 94.695312 216.570312 L 94.695312 220.929688 L 99.074219 220.929688 Z M 99.074219 216.570312 " fill-opacity="1" fill-rule="evenodd"/><path fill="#d1212e" d="M 90.800781 205.925781 L 86.421875 205.925781 L 86.421875 210.28125 L 90.800781 210.28125 Z M 90.800781 205.925781 " fill-opacity="1" fill-rule="evenodd"/><g clip-path="url(#d6558185ac)"><path fill="#d1212e" d="M 96.570312 229.382812 L 93.464844 229.382812 L 93.464844 232.472656 L 96.570312 232.472656 Z M 96.570312 229.382812 " fill-opacity="1" fill-rule="evenodd"/></g><path fill="#d1212e" d="M 103.425781 224.921875 L 99.828125 224.921875 L 99.828125 228.492188 L 103.425781 228.492188 Z M 103.425781 224.921875 " fill-opacity="1" fill-rule="evenodd"/><path fill="#d1212e" d="M 92.0625 213.507812 L 88.964844 213.507812 L 88.964844 216.589844 L 92.0625 216.589844 Z M 92.0625 213.507812 " fill-opacity="1" fill-rule="evenodd"/><path fill="#d1212e" d="M 105.859375 217.574219 L 103.503906 217.574219 L 103.503906 219.917969 L 105.859375 219.917969 Z M 105.859375 217.574219 " fill-opacity="1" fill-rule="evenodd"/><path fill="#d1212e" d="M 99.097656 203.886719 L 93.207031 203.886719 L 93.207031 209.757812 L 99.097656 209.757812 Z M 99.097656 203.886719 " fill-opacity="1" fill-rule="evenodd"/><g fill="#000000" fill-opacity="1"><g transform="translate(166.13948, 176.618909)"><g><path d="M 11.21875 0 L 14.625 0 L 8.785156 -14.4375 L 5.835938 -14.4375 L 0.164062 0 L 3.484375 0 L 4.476562 -2.722656 L 10.210938 -2.722656 Z M 7.34375 -10.621094 L 9.238281 -5.445312 L 5.445312 -5.445312 Z M 7.34375 -10.621094 "/></g></g></g><g fill="#000000" fill-opacity="1"><g transform="translate(182.63954, 176.618909)"><g><path d="M 1.648438 0 L 4.765625 0 L 4.765625 -14.4375 L 1.648438 -14.4375 Z M 1.648438 0 "/></g></g></g><g fill="#000000" fill-opacity="1"><g transform="translate(190.765879, 176.618909)"><g><path d="M 1.257812 -4.332031 L 7.980469 -4.332031 L 7.980469 -7.238281 L 1.257812 -7.238281 Z M 1.257812 -4.332031 "/></g></g></g><g fill="#000000" fill-opacity="1"><g transform="translate(201.717831, 176.618909)"><g><path d="M 11.21875 0 L 14.625 0 L 8.785156 -14.4375 L 5.835938 -14.4375 L 0.164062 0 L 3.484375 0 L 4.476562 -2.722656 L 10.210938 -2.722656 Z M 7.34375 -10.621094 L 9.238281 -5.445312 L 5.445312 -5.445312 Z M 7.34375 -10.621094 "/></g></g></g><g fill="#000000" fill-opacity="1"><g transform="translate(218.217893, 176.618909)"><g><path d="M 9.589844 0 L 13.078125 0 L 9.878906 -5.445312 C 11.488281 -6.230469 12.519531 -7.753906 12.519531 -9.652344 C 12.519531 -12.4375 10.355469 -14.4375 7.464844 -14.4375 L 1.648438 -14.4375 L 1.648438 0 L 4.765625 0 L 4.765625 -4.910156 L 6.765625 -4.910156 Z M 4.765625 -11.550781 L 7.261719 -11.550781 C 8.578125 -11.550781 9.34375 -10.746094 9.34375 -9.671875 C 9.34375 -8.578125 8.578125 -7.796875 7.261719 -7.796875 L 4.765625 -7.796875 Z M 4.765625 -11.550781 "/></g></g></g><g fill="#000000" fill-opacity="1"><g transform="translate(233.542338, 176.618909)"><g><path d="M 11.589844 -14.4375 L 0.433594 -14.4375 L 0.433594 -11.53125 L 4.453125 -11.53125 L 4.453125 0 L 7.570312 0 L 7.570312 -11.53125 L 11.589844 -11.53125 Z M 11.589844 -14.4375 "/></g></g></g><g fill="#000000" fill-opacity="1"><g transform="translate(247.278663, 176.618909)"><g><path d="M 1.648438 0 L 4.765625 0 L 4.765625 -14.4375 L 1.648438 -14.4375 Z M 1.648438 0 "/></g></g></g><g fill="#000000" fill-opacity="1"><g transform="translate(255.405004, 176.618909)"><g><path d="M 6.433594 0.289062 C 9.425781 0.289062 11.902344 -1.21875 11.902344 -4.332031 C 11.902344 -7.570312 9.136719 -8.25 6.949219 -8.808594 C 5.402344 -9.179688 4.167969 -9.488281 4.167969 -10.5 C 4.167969 -11.445312 5.175781 -11.878906 6.1875 -11.878906 C 7.363281 -11.878906 8.394531 -11.300781 8.394531 -10.042969 L 11.46875 -10.042969 C 11.46875 -12.933594 9.589844 -14.707031 6.269531 -14.707031 C 3.074219 -14.707031 1.03125 -13.136719 1.03125 -10.375 C 1.03125 -7.261719 3.671875 -6.621094 5.859375 -6.085938 C 7.425781 -5.734375 8.746094 -5.425781 8.746094 -4.289062 C 8.746094 -3.21875 7.589844 -2.597656 6.414062 -2.597656 C 5.136719 -2.597656 3.980469 -3.28125 3.980469 -4.660156 L 0.824219 -4.660156 C 0.824219 -1.566406 3.113281 0.289062 6.433594 0.289062 Z M 6.433594 0.289062 "/></g></g></g><g fill="#000000" fill-opacity="1"><g transform="translate(269.863194, 176.618909)"><g><path d="M 11.589844 -14.4375 L 0.433594 -14.4375 L 0.433594 -11.53125 L 4.453125 -11.53125 L 4.453125 0 L 7.570312 0 L 7.570312 -11.53125 L 11.589844 -11.53125 Z M 11.589844 -14.4375 "/></g></g></g><g fill="#000000" fill-opacity="1"><g transform="translate(283.599514, 176.618909)"><g><path d="M 9.589844 0 L 13.078125 0 L 9.878906 -5.445312 C 11.488281 -6.230469 12.519531 -7.753906 12.519531 -9.652344 C 12.519531 -12.4375 10.355469 -14.4375 7.464844 -14.4375 L 1.648438 -14.4375 L 1.648438 0 L 4.765625 0 L 4.765625 -4.910156 L 6.765625 -4.910156 Z M 4.765625 -11.550781 L 7.261719 -11.550781 C 8.578125 -11.550781 9.34375 -10.746094 9.34375 -9.671875 C 9.34375 -8.578125 8.578125 -7.796875 7.261719 -7.796875 L 4.765625 -7.796875 Z M 4.765625 -11.550781 "/></g></g></g><g fill="#000000" fill-opacity="1"><g transform="translate(298.923953, 176.618909)"><g><path d="M 13.675781 -14.4375 L 10.332031 -14.4375 L 6.992188 -8.640625 L 3.671875 -14.4375 L 0.351562 -14.4375 L 5.382812 -5.835938 L 5.382812 0 L 8.578125 0 L 8.578125 -5.816406 Z M 13.675781 -14.4375 "/></g></g></g><g fill="#d1212e" fill-opacity="1"><g transform="translate(168.238851, 210.601481)"><g><path d="M 8.148438 -10.683594 L 0.320312 -10.683594 L 0.320312 -9.417969 L 3.570312 -9.417969 L 3.570312 0 L 4.898438 0 L 4.898438 -9.417969 L 8.148438 -9.417969 Z M 8.148438 -10.683594 "/></g></g></g><g fill="#d1212e" fill-opacity="1"><g transform="translate(177.012303, 210.601481)"><g><path d="M 9.003906 -4.074219 C 9.003906 -6.488281 7.355469 -8.410156 4.851562 -8.410156 C 2.457031 -8.410156 0.65625 -6.5625 0.65625 -4.121094 C 0.65625 -1.664062 2.457031 0.183594 4.851562 0.183594 C 6.640625 0.183594 8.089844 -0.808594 8.792969 -2.503906 L 7.417969 -2.503906 C 6.914062 -1.617188 6 -1.082031 4.851562 -1.082031 C 3.296875 -1.082031 2.152344 -2.089844 1.953125 -3.617188 L 8.972656 -3.617188 C 8.988281 -3.769531 9.003906 -3.921875 9.003906 -4.074219 Z M 4.851562 -7.1875 C 6.320312 -7.1875 7.433594 -6.273438 7.707031 -4.808594 L 1.984375 -4.808594 C 2.242188 -6.242188 3.359375 -7.1875 4.851562 -7.1875 Z M 4.851562 -7.1875 "/></g></g></g><g fill="#d1212e" fill-opacity="1"><g transform="translate(186.945349, 210.601481)"><g><path d="M 4.929688 0.183594 C 6.882812 0.183594 8.457031 -0.992188 8.960938 -2.808594 L 7.648438 -2.808594 C 7.144531 -1.710938 6.136719 -1.070312 4.929688 -1.070312 C 3.25 -1.070312 1.96875 -2.394531 1.96875 -4.121094 C 1.96875 -5.832031 3.234375 -7.15625 4.929688 -7.15625 C 6.152344 -7.15625 7.171875 -6.515625 7.648438 -5.449219 L 8.945312 -5.449219 C 8.441406 -7.25 6.898438 -8.410156 4.929688 -8.410156 C 2.488281 -8.410156 0.640625 -6.578125 0.640625 -4.121094 C 0.640625 -1.664062 2.488281 0.183594 4.929688 0.183594 Z M 4.929688 0.183594 "/></g></g></g><g fill="#d1212e" fill-opacity="1"><g transform="translate(196.695302, 210.601481)"><g><path d="M 5.417969 -8.410156 C 4.226562 -8.410156 3.234375 -7.921875 2.59375 -7.113281 L 2.59375 -11.171875 L 1.296875 -11.171875 L 1.296875 0 L 2.59375 0 L 2.59375 -4.488281 C 2.59375 -6.027344 3.679688 -7.234375 5.097656 -7.234375 C 6.515625 -7.234375 7.3125 -6.289062 7.3125 -4.625 L 7.3125 0 L 8.609375 0 L 8.609375 -4.929688 C 8.609375 -7.066406 7.386719 -8.410156 5.417969 -8.410156 Z M 5.417969 -8.410156 "/></g></g></g><g fill="#d1212e" fill-opacity="1"><g transform="translate(206.780933, 210.601481)"><g><path d="M 5.417969 -8.410156 C 4.152344 -8.410156 3.097656 -7.859375 2.472656 -6.945312 L 2.226562 -8.242188 L 1.296875 -8.242188 L 1.296875 0 L 2.59375 0 L 2.59375 -4.488281 C 2.59375 -6.027344 3.679688 -7.234375 5.097656 -7.234375 C 6.515625 -7.234375 7.3125 -6.289062 7.3125 -4.625 L 7.3125 0 L 8.609375 0 L 8.609375 -4.929688 C 8.609375 -6.945312 7.386719 -8.410156 5.417969 -8.410156 Z M 5.417969 -8.410156 "/></g></g></g><g fill="#d1212e" fill-opacity="1"><g transform="translate(216.866562, 210.601481)"><g><path d="M 5.019531 0.183594 C 7.507812 0.183594 9.386719 -1.648438 9.386719 -4.121094 C 9.386719 -6.578125 7.507812 -8.410156 5.019531 -8.410156 C 2.519531 -8.410156 0.640625 -6.59375 0.640625 -4.121094 C 0.640625 -1.648438 2.519531 0.183594 5.019531 0.183594 Z M 5.019531 -1.070312 C 3.25 -1.070312 1.96875 -2.351562 1.96875 -4.121094 C 1.96875 -5.875 3.25 -7.15625 5.019531 -7.15625 C 6.777344 -7.15625 8.058594 -5.875 8.058594 -4.105469 C 8.058594 -2.351562 6.777344 -1.070312 5.019531 -1.070312 Z M 5.019531 -1.070312 "/></g></g></g><g fill="#d1212e" fill-opacity="1"><g transform="translate(227.211574, 210.601481)"><g><path d="M 1.296875 0 L 2.59375 0 L 2.59375 -11.171875 L 1.296875 -11.171875 Z M 1.296875 0 "/></g></g></g><g fill="#d1212e" fill-opacity="1"><g transform="translate(231.407676, 210.601481)"><g><path d="M 5.019531 0.183594 C 7.507812 0.183594 9.386719 -1.648438 9.386719 -4.121094 C 9.386719 -6.578125 7.507812 -8.410156 5.019531 -8.410156 C 2.519531 -8.410156 0.640625 -6.59375 0.640625 -4.121094 C 0.640625 -1.648438 2.519531 0.183594 5.019531 0.183594 Z M 5.019531 -1.070312 C 3.25 -1.070312 1.96875 -2.351562 1.96875 -4.121094 C 1.96875 -5.875 3.25 -7.15625 5.019531 -7.15625 C 6.777344 -7.15625 8.058594 -5.875 8.058594 -4.105469 C 8.058594 -2.351562 6.777344 -1.070312 5.019531 -1.070312 Z M 5.019531 -1.070312 "/></g></g></g><g fill="#d1212e" fill-opacity="1"><g transform="translate(241.752688, 210.601481)"><g><path d="M 8.105469 -8.242188 L 7.90625 -6.960938 C 7.15625 -7.859375 6.027344 -8.410156 4.699219 -8.410156 C 2.410156 -8.410156 0.65625 -6.625 0.65625 -4.335938 C 0.65625 -2.03125 2.410156 -0.257812 4.699219 -0.257812 C 5.921875 -0.257812 6.976562 -0.71875 7.707031 -1.480469 L 7.707031 -0.976562 C 7.707031 0.855469 6.578125 1.9375 4.929688 1.9375 C 3.738281 1.9375 2.703125 1.359375 2.335938 0.335938 L 1.039062 0.335938 C 1.480469 2.074219 2.914062 3.128906 4.929688 3.128906 C 7.449219 3.128906 8.972656 1.511719 8.972656 -1.144531 L 8.972656 -8.226562 Z M 4.839844 -1.496094 C 3.191406 -1.496094 1.96875 -2.714844 1.96875 -4.335938 C 1.96875 -5.953125 3.191406 -7.171875 4.839844 -7.171875 C 6.488281 -7.171875 7.691406 -5.96875 7.691406 -4.335938 C 7.691406 -2.703125 6.5 -1.496094 4.839844 -1.496094 Z M 4.839844 -1.496094 "/></g></g></g><g fill="#d1212e" fill-opacity="1"><g transform="translate(252.32657, 210.601481)"><g><path d="M 7.324219 -8.242188 L 4.5625 -2 L 1.632812 -8.242188 L 0.230469 -8.242188 L 3.890625 -0.550781 L 3.601562 0.0625 C 2.929688 1.433594 2.550781 1.769531 1.433594 1.769531 L 0.777344 1.769531 L 0.777344 2.945312 L 1.558594 2.945312 C 3.113281 2.945312 3.890625 2.304688 4.777344 0.351562 L 8.714844 -8.242188 Z M 7.324219 -8.242188 "/></g></g></g></svg>